<svg width="128" height="128" viewBox="0 0 128 128" fill="none" xmlns="http://www.w3.org/2000/svg">
<circle cx="64" cy="64" r="64" fill="white"/>
<path fill-rule="evenodd" clip-rule="evenodd" d="M94.2351 128H0V33.7662C0 15.1173 15.1175 0 33.7649 0H128V94.2338C128 112.883 112.882 128 94.2351 128ZM101.884 26.7894C100.846 25.7369 99.1443 25.7369 98.1046 26.7894L50.8693 74.608C49.8296 75.6606 48.1297 75.6606 47.0917 74.608L29.8938 57.1994C28.8557 56.1469 27.1542 56.1469 26.1145 57.1994L14.7785 68.6754C13.7405 69.728 13.7405 71.4488 14.7785 72.5013L47.0917 105.212C48.1297 106.263 49.8296 106.263 50.8693 105.212L113.221 42.0913C114.26 41.0388 114.26 39.3179 113.221 38.2654L101.884 26.7894Z" fill="#80C600"/>
</svg>
